<?xml version="1.0" encoding="utf-8"?>
<!-- Generator: Adobe Illustrator 24.1.1, SVG Export Plug-In . SVG Version: 6.00 Build 0)  -->
<svg version="1.1" id="Layer_1" xmlns="http://www.w3.org/2000/svg" xmlns:xlink="http://www.w3.org/1999/xlink" x="0px" y="0px"
	 viewBox="0 0 200 101.19" style="enable-background:new 0 0 200 101.19;" xml:space="preserve">
<style type="text/css">
	.st0{enable-background:new    ;}
	.st1{fill:#FFFFFF;}
	.st2{fill-rule:evenodd;clip-rule:evenodd;fill:#FF6700;}
	.st3{clip-path:url(#SVGID_2_);}
	.st4{fill-rule:evenodd;clip-rule:evenodd;fill:#FF9B24;}
	.st5{clip-path:url(#SVGID_4_);}
	.st6{clip-path:url(#SVGID_6_);}
	.st7{clip-path:url(#SVGID_8_);}
	.st8{fill-rule:evenodd;clip-rule:evenodd;fill:#001A36;}
</style>
<g>
	<g transform="matrix(0.852111,0,0,0.893433,25.8945,34.9306)">
		<g class="st0">
			<path class="st1" d="M66.62,48.23V10.92h14.15v2.71H70.32v14.01h8.51v2.57h-8.51V45.6h10.52v2.63
				C80.84,48.23,66.62,48.23,66.62,48.23z"/>
			<path class="st1" d="M93.43,48.23l8.27-37.34h3.87l8.29,37.34h-3.62l-1.93-10.01h-9.32L97,48.23H93.43z M99.52,35.69h8.32
				l-4.16-20.13L99.52,35.69z"/>
			<path class="st1" d="M137.05,48.74c-2.47,0-4.43-0.48-5.83-1.48s-2.39-2.36-2.98-4.16c-0.59-1.8-0.86-3.87-0.86-6.26V22.27
				c0-2.39,0.27-4.48,0.86-6.23c0.56-1.74,1.56-3.11,3.01-4.08c1.42-0.96,3.46-1.45,6.06-1.45c2.36,0,4.21,0.4,5.59,1.23
				c1.37,0.83,2.36,2.04,2.98,3.65s0.91,3.54,0.91,5.85v1.29h-3.49v-1.29c0-1.77-0.16-3.25-0.51-4.43
				c-0.35-1.16-0.94-2.04-1.77-2.63c-0.83-0.59-2.07-0.89-3.68-0.89c-1.8,0-3.17,0.38-4.05,1.1c-0.91,0.72-1.5,1.74-1.77,3.03
				c-0.27,1.29-0.4,2.77-0.4,4.43v15.36c0,1.83,0.16,3.35,0.51,4.65c0.35,1.29,0.96,2.26,1.88,2.95c0.91,0.7,2.2,1.05,3.89,1.05
				c1.64,0,2.9-0.35,3.76-1.05c0.86-0.7,1.48-1.69,1.83-2.98c0.35-1.29,0.54-2.84,0.54-4.7v-4.38h-5.77v-2.63h9.18V48.2h-2.36
				l-0.43-4.24c-0.48,1.42-1.29,2.55-2.39,3.44C140.62,48.31,139.06,48.74,137.05,48.74z"/>
			<path class="st1" d="M162.95,48.23V10.92h3.68v34.71h11.11v2.63h-14.79L162.95,48.23L162.95,48.23z"/>
			<path class="st1" d="M191.03,48.23V10.92h14.15v2.71h-10.44v14.01h8.51v2.57h-8.51V45.6h10.52v2.63
				C205.25,48.23,191.03,48.23,191.03,48.23z"/>
		</g>
	</g>
	<g>
		<g transform="matrix(0.893433,0,0,0.893433,29.5557,32.7863)">
			<path class="st2" d="M-17.31-37.15c0,0,11.81,4.27,10.95,20.8c0,0-3.65-12.78-11.17-14.71c0,0,3.78,3.97,3.95,12.64
				c0.16,8.67,2.95,16.64,6.36,19.3c0,0-10.15-5.29-9.93-20.77c0,0-5.39,18.74,8.54,30.47c0,0-9.05-4.67-11.09-13.66
				c0,0-0.91,28.64,27.92,38.54c0,0-5.42,1.07-9.61-0.4c0,0,17.15,15.16,33.85,0.67C49.13,21.26,37.4,4.87,37.4,4.87
				s2.77-5.56,7.14-10.26c0,0-2.52,1.96-7.33,2.84S28.7-1.71,25.11,4c-3.57,5.72-4.56,5.23-6.26,4.83c0,0,2.6,2.87,6.17-0.4
				c0,0,3.01,5.18-1.88,9.56S9.8,22.31,6.21,12.62C0.03-4.08,15.28-32.13-17.31-37.15z"/>
			<g>
				<g>
					<g>
						<defs>
							<path id="SVGID_1_" d="M-17.31-37.15c0,0,11.81,4.27,10.95,20.8c0,0-3.65-12.78-11.17-14.71c0,0,3.78,3.97,3.95,12.64
								c0.16,8.67,2.95,16.64,6.36,19.3c0,0-10.15-5.29-9.93-20.77c0,0-5.39,18.74,8.54,30.47c0,0-9.05-4.67-11.09-13.66
								c0,0-0.91,28.64,27.92,38.54c0,0-5.42,1.07-9.61-0.4c0,0,17.15,15.16,33.85,0.67C49.13,21.26,37.4,4.87,37.4,4.87
								s2.77-5.56,7.14-10.26c0,0-2.52,1.96-7.33,2.84S28.7-1.71,25.11,4c-3.57,5.72-4.56,5.23-6.26,4.83c0,0,2.6,2.87,6.17-0.4
								c0,0,3.01,5.18-1.88,9.56S9.8,22.31,6.21,12.62C0.03-4.08,15.28-32.13-17.31-37.15z"/>
						</defs>
						<clipPath id="SVGID_2_">
							<use xlink:href="#SVGID_1_"  style="overflow:visible;"/>
						</clipPath>
						<g class="st3">
							<g transform="matrix(1.0241,0,0,0.991163,-5.87763,2.899)">
								<path class="st4" d="M-9.53-44C-11.57-45.2-20.32,4.78-20.16,8c0.46,7.92,27.32,31.75,34.12,34.6
									c13.12,5.45,30.79-7.68,31.89-11.41c0.4-1.37,2.55-6.9-2.04-5.69c-0.05,0.02,0.02-0.11-0.02-0.16
									c-0.05-0.02-0.11-0.02-0.13,0.02c-0.86,1.1-1.77,2.15-2.79,3.11c-1.02,0.94-2.1,1.77-3.25,2.5
									c-2.71,1.72-5.48,2.39-8.18,2.42c-2.79,0.02-5.53-0.67-8.14-1.9c-5.13-2.47-9.58-6.98-12.27-11.73
									c-2.33-4.11-3.54-8.4-4.16-12.81c-1.1-7.6-0.46-15.49-0.89-23.27c-0.19-3.46-0.65-6.9-1.45-10.26
									C1.5-30.57-2.79-39.97-9.53-44z"/>
							</g>
						</g>
					</g>
				</g>
			</g>
		</g>
		<g transform="matrix(0.893433,0,0,0.893433,29.5557,32.7863)">
			<path class="st2" d="M12.35,44.59c0,0,6.68,1.93,12.56-1.77c0,0-3.68,4.83-10.52,8.86c-7.49,4.43-8.05,12.27-4.21,16.8
				c0,0-6.9-5.02-3.09-14.58C8.11,51.32,11.15,46.06,12.35,44.59z"/>
			<g>
				<g>
					<g>
						<defs>
							<path id="SVGID_3_" d="M12.35,44.59c0,0,6.68,1.93,12.56-1.77c0,0-3.68,4.83-10.52,8.86c-7.49,4.43-8.05,12.27-4.21,16.8
								c0,0-6.9-5.02-3.09-14.58C8.11,51.32,11.15,46.06,12.35,44.59z"/>
						</defs>
						<clipPath id="SVGID_4_">
							<use xlink:href="#SVGID_3_"  style="overflow:visible;"/>
						</clipPath>
						<g class="st5">
							<path class="st4" d="M16.22,38.82c-0.7,0.08,0.02-0.4-0.51,0.02c-0.13,0.11-0.11,0.29-0.16,0.46
								c-0.62,1.8-1.85,3.06-3.01,4.56c-0.32,0.4-0.67,0.78-0.99,1.21c-0.48,0.62-0.94,1.26-1.42,1.88
								c-0.62,0.81-1.23,1.61-1.8,2.47c-0.59,0.89-1.1,1.8-1.59,2.71c-1.1,2.17-1.85,4.43-1.77,6.95c0.02,0.65,0.11,1.29,0.27,1.9
								c0.22,0.89,0.51,1.77,0.83,2.63c0.48,1.21,1.26,2.57,2.28,3.73c1.02,1.16,2.26,2.07,3.54,2.42c0.05,0.02,0.11,0,0.11-0.05
								c0.02-0.05,0-0.11-0.05-0.11c-1.16-0.51-2.17-1.53-2.98-2.74c-0.81-1.16-1.37-2.5-1.69-3.65c-0.22-0.83-0.43-1.66-0.54-2.52
								c-0.08-0.54-0.08-1.07-0.05-1.61c0.11-1.59,0.65-3.03,1.34-4.38c1.02-1.96,2.52-3.73,3.92-5.5c0.59-0.75,1.18-1.5,1.69-2.31
								c0.38-0.56,0.67-1.13,0.96-1.72c0.72-1.45,1.53-2.74,1.96-4.21c0.16-0.59,0.65-1.26,0.35-1.85
								c-0.24-0.46-0.02-0.02-0.46-0.27c0-0.08-0.02-0.13-0.11-0.16C16.3,38.71,16.22,38.76,16.22,38.82z"/>
						</g>
					</g>
				</g>
			</g>
		</g>
		<g transform="matrix(0.893433,0,0,0.893433,29.5557,32.7863)">
			<path class="st2" d="M8.06,45.66c0,0-10.87,7.46-16.7-5.96c0,0-0.13,8.29,6.95,9.96C4.36,51.08,8.06,45.66,8.06,45.66z"/>
			<g>
				<g>
					<g>
						<defs>
							<path id="SVGID_5_" d="M8.06,45.66c0,0-10.87,7.46-16.7-5.96c0,0-0.13,8.29,6.95,9.96C4.36,51.08,8.06,45.66,8.06,45.66z"/>
						</defs>
						<clipPath id="SVGID_6_">
							<use xlink:href="#SVGID_5_"  style="overflow:visible;"/>
						</clipPath>
						<g class="st6">
							<path class="st4" d="M-8.93,38.06c-0.13,0.16-0.16,0.13-0.24,0.29c-0.02,0.05,0,0.11,0,0.19c0,0.59,0.11,1.18,0.29,1.8
								c0.46,1.64,1.45,3.2,2.63,4.54c1.77,1.99,4.16,3.41,6.6,3.73c1.13,0.13,2.28,0.02,3.38-0.27c1.05-0.29,2.07-0.75,3.01-1.32
								c0.59-0.4,1.16-0.81,1.61-1.32c0.46-0.51,0.81-1.1,1.1-1.74c0.08-0.11,0.05-0.27-0.05-0.32c-0.11-0.08-0.27-0.05-0.32,0.05
								C8.7,44.07,8.32,44.34,7.9,44.6c-0.24,0.16-0.51,0.27-0.78,0.4c-0.38,0.22-0.72,0.43-1.13,0.62
								c-0.83,0.43-1.74,0.72-2.68,0.94c-0.89,0.19-1.8,0.27-2.71,0.13c-2.04-0.24-4-1.45-5.56-3.03c-1.1-1.13-1.99-2.47-2.63-3.81
								c-0.24-0.51-0.46-0.99-0.67-1.48c-0.02-0.05-0.02-0.11-0.08-0.16c-0.13-0.13-0.16-0.11-0.32-0.19c0-0.08-0.08-0.13-0.16-0.11
								C-8.9,37.9-8.93,37.99-8.93,38.06z"/>
						</g>
					</g>
				</g>
			</g>
		</g>
		<g transform="matrix(0.905999,0.198303,-0.19832,0.906076,80.0074,-9.523)">
			<path class="st2" d="M-25.74,99.87c0,0,0.22,11.94-10.31,15.06c-11.49,3.41-25.42,3.92-22.07,20.43c0,0-6.82-8.32-0.32-18.06
				C-51.94,107.55-32.32,111.09-25.74,99.87z"/>
			<g>
				<g>
					<g>
						<defs>
							<path id="SVGID_7_" d="M-25.74,99.87c0,0,0.22,11.94-10.31,15.06c-11.49,3.41-25.42,3.92-22.07,20.43
								c0,0-6.82-8.32-0.32-18.06C-51.94,107.55-32.32,111.09-25.74,99.87z"/>
						</defs>
						<clipPath id="SVGID_8_">
							<use xlink:href="#SVGID_7_"  style="overflow:visible;"/>
						</clipPath>
						<g class="st7">
							<g transform="matrix(0.941047,-0.205956,0.205974,0.940967,-43.3864,56.1905)">
								<path class="st4" d="M-36.47,69.12c-0.02,0.7,2.87,9.8,3.62,10.33c0.96,0.7-0.16-7.36-0.02-8.78
									c0.62-6.66,5.45-9.5,8.14-10.9c5.99-3.09,15.25-2.31,21.1-2.98c5.18-0.59,11.11-2.68,11.97-9.53
									c0.19-1.48-9.12,4.16-10.01,4.35c-0.99,0.24-23.62,2.71-25.47,3.81C-30.19,57.29-36.44,68.02-36.47,69.12z"/>
							</g>
						</g>
					</g>
				</g>
			</g>
		</g>
		<g transform="matrix(0.978261,0,0,0.911331,22.7469,23.774)">
			<path class="st2" d="M10.59,67.5c0,0-0.94,4.83-7.2,6.98s-9.93,5.59-10.33,9.37c0,0-0.32-7.54,6.55-10.28
				C6.51,70.83,8.84,70.19,10.59,67.5z"/>
		</g>
		<g transform="matrix(0.874663,-0.182174,0.182174,0.874663,-4.96272,94.7548)">
			<path class="st8" d="M80.73-50.77c0,0,1.05,0.43,2.6-0.91C83.36-51.68,82.42-52.75,80.73-50.77z"/>
		</g>
	</g>
</g>
</svg>
