<?xml version="1.0" encoding="utf-8"?>
<!-- Generator: Adobe Illustrator 24.1.2, SVG Export Plug-In . SVG Version: 6.00 Build 0)  -->
<svg version="1.1" id="Layer_1" xmlns="http://www.w3.org/2000/svg" xmlns:xlink="http://www.w3.org/1999/xlink" x="0px" y="0px"
	 viewBox="0 0 38 38" style="enable-background:new 0 0 38 38;" xml:space="preserve">
<style type="text/css">
	.st0{fill-rule:evenodd;clip-rule:evenodd;fill:#FF6700;}
	.st1{clip-path:url(#SVGID_2_);}
	.st2{fill-rule:evenodd;clip-rule:evenodd;fill:#FF9B24;}
	.st3{clip-path:url(#SVGID_4_);}
	.st4{clip-path:url(#SVGID_6_);}
	.st5{clip-path:url(#SVGID_8_);}
	.st6{fill-rule:evenodd;clip-rule:evenodd;fill:#001A36;}
</style>
<g>
	<g transform="matrix(0.893433,0,0,0.893433,29.5557,32.7863)">
		<path class="st0" d="M-18.3-31.9c0,0,3.4,1.2,3.2,6c0,0-1.1-3.7-3.2-4.2c0,0,1.1,1.1,1.1,3.6c0,2.5,0.9,4.8,1.8,5.6
			c0,0-2.9-1.5-2.9-6c0,0-1.6,5.4,2.5,8.8c0,0-2.6-1.3-3.2-3.9c0,0-0.3,8.3,8,11.1c0,0-1.6,0.3-2.8-0.1c0,0,4.9,4.4,9.8,0.2
			c4.8-4.2,1.4-8.9,1.4-8.9s0.8-1.6,2.1-3c0,0-0.7,0.6-2.1,0.8C-4-21.7-5.1-21.7-6.1-20c-1,1.6-1.3,1.5-1.8,1.4c0,0,0.7,0.8,1.8-0.1
			c0,0,0.9,1.5-0.5,2.8s-3.8,1.2-4.9-1.5C-13.3-22.4-8.9-30.4-18.3-31.9z"/>
		<g>
			<g>
				<g>
					<g>
						<defs>
							<path id="SVGID_1_" d="M-18.3-31.9c0,0,3.4,1.2,3.2,6c0,0-1.1-3.7-3.2-4.2c0,0,1.1,1.1,1.1,3.6c0,2.5,0.9,4.8,1.8,5.6
								c0,0-2.9-1.5-2.9-6c0,0-1.6,5.4,2.5,8.8c0,0-2.6-1.3-3.2-3.9c0,0-0.3,8.3,8,11.1c0,0-1.6,0.3-2.8-0.1c0,0,4.9,4.4,9.8,0.2
								c4.8-4.2,1.4-8.9,1.4-8.9s0.8-1.6,2.1-3c0,0-0.7,0.6-2.1,0.8C-4-21.7-5.1-21.7-6.1-20c-1,1.6-1.3,1.5-1.8,1.4
								c0,0,0.7,0.8,1.8-0.1c0,0,0.9,1.5-0.5,2.8s-3.8,1.2-4.9-1.5C-13.3-22.4-8.9-30.4-18.3-31.9z"/>
						</defs>
						<clipPath id="SVGID_2_">
							<use xlink:href="#SVGID_1_"  style="overflow:visible;"/>
						</clipPath>
						<g class="st1">
							<g transform="matrix(1.0241,0,0,0.991163,-5.87763,2.899)">
								<path class="st2" d="M-11.7-36.1c-0.6-0.3-3.1,14.1-3.1,15c0.1,2.3,7.9,9.2,9.8,10c3.8,1.6,8.9-2.2,9.2-3.3
									c0.1-0.4,0.7-2-0.6-1.6c0,0,0,0,0,0c0,0,0,0,0,0c-0.2,0.3-0.5,0.6-0.8,0.9c-0.3,0.3-0.6,0.5-0.9,0.7
									c-0.8,0.5-1.6,0.7-2.4,0.7c-0.8,0-1.6-0.2-2.3-0.5c-1.5-0.7-2.8-2-3.5-3.4c-0.7-1.2-1-2.4-1.2-3.7c-0.3-2.2-0.1-4.5-0.3-6.7
									c-0.1-1-0.2-2-0.4-3C-8.5-32.3-9.7-35-11.7-36.1z"/>
							</g>
						</g>
					</g>
				</g>
			</g>
		</g>
	</g>
	<g transform="matrix(0.893433,0,0,0.893433,29.5557,32.7863)">
		<path class="st0" d="M-9.8-8.3c0,0,1.9,0.6,3.6-0.5c0,0-1.1,1.4-3,2.6c-2.2,1.3-2.3,3.5-1.2,4.8c0,0-2-1.4-0.9-4.2
			C-11-6.4-10.1-7.9-9.8-8.3z"/>
		<g>
			<g>
				<g>
					<g>
						<defs>
							<path id="SVGID_3_" d="M-9.8-8.3c0,0,1.9,0.6,3.6-0.5c0,0-1.1,1.4-3,2.6c-2.2,1.3-2.3,3.5-1.2,4.8c0,0-2-1.4-0.9-4.2
								C-11-6.4-10.1-7.9-9.8-8.3z"/>
						</defs>
						<clipPath id="SVGID_4_">
							<use xlink:href="#SVGID_3_"  style="overflow:visible;"/>
						</clipPath>
						<g class="st3">
							<path class="st2" d="M-8.7-10c-0.2,0,0-0.1-0.1,0c0,0,0,0.1,0,0.1C-9-9.3-9.4-9-9.7-8.5C-9.8-8.4-9.9-8.3-10-8.2
								c-0.1,0.2-0.3,0.4-0.4,0.5c-0.2,0.2-0.4,0.5-0.5,0.7c-0.2,0.3-0.3,0.5-0.5,0.8c-0.3,0.6-0.5,1.3-0.5,2c0,0.2,0,0.4,0.1,0.5
								c0.1,0.3,0.1,0.5,0.2,0.8c0.1,0.3,0.4,0.7,0.7,1.1c0.3,0.3,0.7,0.6,1,0.7c0,0,0,0,0,0c0,0,0,0,0,0c-0.3-0.1-0.6-0.4-0.9-0.8
								C-11-2.2-11.1-2.6-11.2-3c-0.1-0.2-0.1-0.5-0.2-0.7c0-0.2,0-0.3,0-0.5c0-0.5,0.2-0.9,0.4-1.3C-10.7-6-10.3-6.5-9.9-7
								c0.2-0.2,0.3-0.4,0.5-0.7C-9.3-7.8-9.2-8-9.1-8.2c0.2-0.4,0.4-0.8,0.6-1.2c0-0.2,0.2-0.4,0.1-0.5C-8.5-10-8.5-9.9-8.7-10
								C-8.6-10-8.6-10-8.7-10C-8.6-10-8.7-10-8.7-10z"/>
						</g>
					</g>
				</g>
			</g>
		</g>
	</g>
	<g transform="matrix(0.893433,0,0,0.893433,29.5557,32.7863)">
		<path class="st0" d="M-11-8c0,0-3.1,2.2-4.8-1.7c0,0,0,2.4,2,2.9C-12.1-6.5-11-8-11-8z"/>
		<g>
			<g>
				<g>
					<g>
						<defs>
							<path id="SVGID_5_" d="M-11-8c0,0-3.1,2.2-4.8-1.7c0,0,0,2.4,2,2.9C-12.1-6.5-11-8-11-8z"/>
						</defs>
						<clipPath id="SVGID_6_">
							<use xlink:href="#SVGID_5_"  style="overflow:visible;"/>
						</clipPath>
						<g class="st4">
							<path class="st2" d="M-15.9-10.2C-15.9-10.2-16-10.2-15.9-10.2c-0.1,0.1-0.1,0.1-0.1,0.1c0,0.2,0,0.3,0.1,0.5
								c0.1,0.5,0.4,0.9,0.8,1.3c0.5,0.6,1.2,1,1.9,1.1c0.3,0,0.7,0,1-0.1c0.3-0.1,0.6-0.2,0.9-0.4c0.2-0.1,0.3-0.2,0.5-0.4
								c0.1-0.1,0.2-0.3,0.3-0.5c0,0,0-0.1,0-0.1c0,0-0.1,0-0.1,0c-0.1,0.1-0.2,0.2-0.3,0.3c-0.1,0-0.1,0.1-0.2,0.1
								c-0.1,0.1-0.2,0.1-0.3,0.2c-0.2,0.1-0.5,0.2-0.8,0.3c-0.3,0.1-0.5,0.1-0.8,0c-0.6-0.1-1.2-0.4-1.6-0.9
								c-0.3-0.3-0.6-0.7-0.8-1.1c-0.1-0.1-0.1-0.3-0.2-0.4c0,0,0,0,0,0C-15.8-10.2-15.8-10.2-15.9-10.2
								C-15.8-10.2-15.9-10.3-15.9-10.2C-15.9-10.3-15.9-10.2-15.9-10.2z"/>
						</g>
					</g>
				</g>
			</g>
		</g>
	</g>
	<g transform="matrix(0.905999,0.198303,-0.19832,0.906076,80.0074,-9.523)">
		<path class="st0" d="M-55.2,51.6c0,0,0.1,3.4-3,4.3c-3.3,1-7.3,1.1-6.4,5.9c0,0-2-2.4-0.1-5.2C-62.8,53.8-57.1,54.8-55.2,51.6z"/>
		<g>
			<g>
				<g>
					<g>
						<defs>
							<path id="SVGID_7_" d="M-55.2,51.6c0,0,0.1,3.4-3,4.3c-3.3,1-7.3,1.1-6.4,5.9c0,0-2-2.4-0.1-5.2
								C-62.8,53.8-57.1,54.8-55.2,51.6z"/>
						</defs>
						<clipPath id="SVGID_8_">
							<use xlink:href="#SVGID_7_"  style="overflow:visible;"/>
						</clipPath>
						<g class="st5">
							<g transform="matrix(0.941047,-0.205956,0.205974,0.940967,-43.3864,56.1905)">
								<path class="st2" d="M-23.8-1.3c0,0.2,0.8,2.8,1,3c0.3,0.2,0-2.1,0-2.5c0.2-1.9,1.6-2.7,2.3-3.1c1.7-0.9,4.4-0.7,6.1-0.9
									c1.5-0.2,3.2-0.8,3.4-2.7c0.1-0.4-2.6,1.2-2.9,1.3c-0.3,0.1-6.8,0.8-7.3,1.1C-22-4.7-23.8-1.6-23.8-1.3z"/>
							</g>
						</g>
					</g>
				</g>
			</g>
		</g>
	</g>
	<g transform="matrix(0.978261,0,0,0.911331,22.7469,23.774)">
		<path class="st0" d="M-4.2,5.7c0,0-0.3,1.4-2.1,2s-2.9,1.6-3,2.7c0,0-0.1-2.2,1.9-3C-5.4,6.7-4.7,6.5-4.2,5.7z"/>
	</g>
	<g transform="matrix(0.874663,-0.182174,0.182174,0.874663,-4.96272,94.7548)">
		<path class="st6" d="M51.5-80.8c0,0,0.3,0.1,0.7-0.3C52.3-81.1,52-81.4,51.5-80.8z"/>
	</g>
</g>
</svg>
